<svg xmlns="http://www.w3.org/2000/svg" xmlns:xlink="http://www.w3.org/1999/xlink" width="326.31" height="356.89" viewBox="0 0 326.31 356.89">
  <defs>
    <clipPath id="a" transform="translate(-36.57 -21.19)">
      <rect x="36.57" y="21.05" width="326.86" height="357.9" fill="none"/>
    </clipPath>
  </defs>
  <title>autoship_logo</title>
  <g>
    <g clip-path="url(#a)">
      <path d="M103,92c52.69-47.67,131.54-48.39,185-4.88l-42.34,1.6a9.84,9.84,0,0,0,.36,19.68h.37l65-2.41a9.82,9.82,0,0,0,9.47-9.84V95l-2.41-64.28a9.84,9.84,0,1,0-19.67.73l1.53,40.3A161.83,161.83,0,0,0,89.82,77.38,161.9,161.9,0,0,0,41.14,235.6a9.8,9.8,0,0,0,9.55,7.51,8.86,8.86,0,0,0,2.33-.29,9.86,9.86,0,0,0,7.22-11.88A142.17,142.17,0,0,1,103,92Zm0,0" transform="translate(-36.57 -21.19)" fill="#ea0029"/>
      <path d="M358.31,163.67a9.83,9.83,0,1,0-19.1,4.66A142.17,142.17,0,0,1,110.3,311.25l42.86-3.87a9.84,9.84,0,0,0-1.82-19.6l-64.79,5.83a9.84,9.84,0,0,0-8.9,10.71l5.84,64.79a9.82,9.82,0,0,0,9.76,9,3.32,3.32,0,0,0,.88-.08A9.82,9.82,0,0,0,103,367.29l-3.5-39.43A160.71,160.71,0,0,0,193,363.5c2.77.15,5.54.22,8.23.22A161.85,161.85,0,0,0,358.31,163.67Zm0,0" transform="translate(-36.57 -21.19)" fill="#2374bb"/>
    </g>
    <path d="M155,265.62h91a7.58,7.58,0,0,0,7.59-7.58V166.52a7.59,7.59,0,0,0-7.59-7.59H223.3v-7.58a22.76,22.76,0,1,0-45.51,0v7.58H155a7.59,7.59,0,0,0-7.59,7.59V258a7.58,7.58,0,0,0,7.59,7.58ZM193,151.35a7.59,7.59,0,1,1,15.17,0v7.58H193ZM162.62,174.1h15.17v7.59a7.59,7.59,0,0,0,15.17,0V174.1h15.17v7.59a7.59,7.59,0,0,0,15.17,0V174.1h15.17v76.35H162.62Zm0,0" transform="translate(-36.57 -21.19)" fill="gray"/>
  </g>
</svg>
