<svg xmlns="http://www.w3.org/2000/svg" viewBox="0 0 100 100">
    <defs><linearGradient id="a" x1="2360.1" x2="2407.2" y1="-1316" y2="-1361.7" gradientUnits="userSpaceOnUse"><stop offset=".1" stop-color="#8cb7e0"/><stop offset=".9" stop-color="#1970c2"/></linearGradient><linearGradient id="b" x1="2389.6" x2="2436.7" y1="-1278.6" y2="-1324.2" gradientUnits="userSpaceOnUse"><stop offset=".1" stop-color="#ec042c"/><stop offset=".9" stop-color="#f58195"/></linearGradient></defs>
    <circle cx="50" cy="50" r="50" fill="none"/><path fill="url(#a)" d="M2416.3-1366.8l6.2 11a2.6 2.6 0 0 1 .1 2.4 2.6 2.6 0 0 1-1 1.1 2.5 2.5 0 0 1-.5.3h-.2l-.1.1a2.6 2.6 0 0 1-.4.1l-12.2 3.3a2.6 2.6 0 0 1-3.2-1.9 2.6 2.6 0 0 1 0-1.6 2.6 2.6 0 0 1 1.8-1.6l5.7-1.5a36.8 36.8 0 0 0-41.8 13.6 35.5 35.5 0 0 0-3.4 34.4 2.6 2.6 0 0 1-1.4 3.4 2.6 2.6 0 0 1-3.4-1.4 40.7 40.7 0 0 1-.6-31 41.2 41.2 0 0 1 4.5-8.4 41.5 41.5 0 0 1 47.7-15.6l-2.4-4.2a2.6 2.6 0 0 1 1-3.6 2.6 2.6 0 0 1 3.6 1z" transform="translate(-2350 1371.5)"/><path fill="url(#b)" d="M2379.3-1291.3l12.3-3.3a2.6 2.6 0 0 1 3.2 1.9 2.6 2.6 0 0 1-1.8 3.2l-5.7 1.5a36.8 36.8 0 0 0 41.8-13.6 35.5 35.5 0 0 0 3.4-34.4 2.6 2.6 0 0 1 1.4-3.4 2.6 2.6 0 0 1 3.4 1.4 40.7 40.7 0 0 1-4 39.4 41.6 41.6 0 0 1-47.6 15.6l2.3 4.2a2.6 2.6 0 0 1-1 3.5 2.6 2.6 0 0 1-3.5-1l-6.2-11.1a2.6 2.6 0 0 1-.2-2.2v-.1a2.6 2.6 0 0 1 1-1.1 2.5 2.5 0 0 1 .6-.3l.2-.1a2.5 2.5 0 0 1 .4-.1z" transform="translate(-2350 1371.5)"/><path fill="gray" d="M62.7 47a1.4 1.4 0 0 0-2-.3l-8.4 5.6a3.4 3.4 0 0 0-2.3-.9 3.4 3.4 0 0 0-3 1.8l-5.7-1.5a1.4 1.4 0 0 0-1.7 1 1.4 1.4 0 0 0 1 1.6l6.1 1.7a3.4 3.4 0 0 0 3.3 2.4 3.5 3.5 0 0 0 3.5-3.5l8.8-6a1.4 1.4 0 0 0 .4-1.8zM50 56.7a1.7 1.7 0 0 1-1.7-1.7 1.7 1.7 0 0 1 1.7-1.7 1.7 1.7 0 0 1 1.7 1.7 1.7 1.7 0 0 1-1.7 1.7zm19.4-16.3a3.8 3.8 0 0 0-.5-.4 1.3 1.3 0 0 0 0-.1l-7.6-6.1a6.1 6.1 0 0 0-3.6-1.2H42.3a6.2 6.2 0 0 0-3.6 1.2l-7.5 6a1.4 1.4 0 0 0-.1.2 3.8 3.8 0 0 0-.5.4 3.7 3.7 0 0 0-1 2.7l.3 22.8a3.8 3.8 0 0 0 3.7 3.7h32.8a3.8 3.8 0 0 0 3.7-3.7l.4-22.8a3.7 3.7 0 0 0-1.1-2.7zm-9.7-4.6l4.3 3.5H51.5l-.3-4.1h6.5a3.5 3.5 0 0 1 2 .6zm-19.5 0a3.6 3.6 0 0 1 2.1-.6h6.5l-.3 4H36zm26.7 30a.5.5 0 0 1-.5.6H33.6a.5.5 0 0 1-.5-.5L32.8 43a.5.5 0 0 1 .1-.4.5.5 0 0 1 .4-.2h33.4a.5.5 0 0 1 .4.2.5.5 0 0 1 .1.4z"/>
</svg>